<svg width="120" height="70" viewBox="0 0 120 70" fill="none" xmlns="http://www.w3.org/2000/svg">
<g clip-path="url(#clip0_146_902)">
<g clip-path="url(#clip1_146_902)">
<path d="M42.8301 42.2727C39.7128 43.2329 36.7267 45.0198 36.3988 48.6744C36.3187 49.5663 36.4592 50.4588 36.4999 51.3497C36.7559 56.9299 34.048 61.4933 28.276 62.5183C18.5509 64.2452 2.96148 48.6812 9.55507 39.4797C11.3355 36.9949 14.2477 35.317 17.3419 35.268C20.6663 35.2155 22.6509 35.8434 24.9333 32.4209C26.6999 29.7718 27.1012 22.5683 31.074 21.9445C32.1556 21.7744 32.996 22.326 33.3693 23.3236C34.5436 26.4614 29.3864 26.9806 34.7582 31.0905C35.4472 30.51 36.0672 29.8456 36.7045 29.2096L38.9753 26.9707C39.4657 26.4807 39.9537 25.9117 40.4964 25.4852L40.5921 25.5078C40.8897 25.2403 41.2212 24.9737 41.4849 24.6725C41.973 25.2849 40.3855 29.6128 41.1711 31.1269C42.0737 31.569 41.3837 31.4175 40.8557 32.2885L40.919 32.3711C39.9992 33.1312 38.899 34.2342 38.0974 35.1213C40.0183 37.171 40.4288 37.2009 42.8301 36.1612C45.8035 33.7677 50.9768 39.0091 42.8301 42.2727ZM28.2883 48.0948C31.4752 47.0048 28.7214 44.7013 27.4809 43.4488C26.7548 42.7157 25.6119 41.038 24.4452 41.1561C23.0724 41.47 22.3096 42.6553 23.303 43.8958C23.9719 44.7308 24.8428 45.4332 25.6088 46.1792C26.354 46.9048 27.1306 48.1359 28.2883 48.0948ZM24.0602 52.0248C27.2613 50.9453 24.2153 48.5062 23.104 47.3922C22.2835 46.5699 21.4759 45.1856 20.1751 45.2443C19.2709 45.5164 18.5412 46.4043 18.8279 47.3869C19.0661 48.2033 22.6931 51.6523 23.2039 51.8945C23.4853 52.0279 23.7539 52.0441 24.0602 52.0248Z" fill="url(#paint0_linear_146_902)"/>
<path d="M42.83 36.1612C45.8035 33.7677 50.9768 39.0092 42.83 42.2727C42.981 41.8334 42.6174 41.6169 42.5994 41.2009C42.5739 40.6139 42.6398 40.0215 42.6163 39.4351C42.5778 38.4725 42.2794 38.2935 42.5045 36.9562C42.5523 36.6716 42.7739 36.4533 42.83 36.1612Z" fill="#E76A1A"/>
<path d="M79.9631 11.5116C81.6779 11.1995 86.4689 16.0913 85.8412 18.141C85.4434 19.4397 84.1064 19.1384 83.395 20.0175C82.7684 20.7917 83.2702 21.7517 82.7596 22.5669C82.1159 23.5944 80.8622 23.4402 79.9631 22.8749C78.0943 23.7202 77.7633 24.0703 76.3729 25.4731L64.1441 37.7493C63.2019 38.6936 62.2195 39.6313 61.3474 40.6413C65.9856 44.0947 66.8596 40.3149 69.5739 41.5013C70.8425 42.0557 71.339 43.2246 70.7197 44.4925C68.7608 48.5033 61.8444 47.149 59.8524 52.1192C59.4816 53.0447 59.4595 54.0767 59.3832 55.0589C58.707 63.7515 53.0082 66.8434 45.4354 62.9937C43.2937 61.8207 40.1367 59.3576 39.2167 57.0739C39.5099 55.5357 39.7192 54.0242 39.7877 52.4572C39.8413 51.231 39.4544 49.5603 39.8499 48.4488C41.2217 44.5924 47.8963 45.9527 49.8668 40.146C50.506 38.2625 49.7711 36.6386 48.9409 34.9616C50.3169 32.5512 50.3259 27.6882 53.7206 27.0638C54.8539 26.8552 55.6821 27.5461 56.1156 28.5366C57.4848 31.6663 53.4402 33.1138 58.127 36.663C59.3918 35.4748 60.5692 34.1874 61.7903 32.9544L72.5663 22.1024C73.1756 21.4769 73.989 20.8402 74.4619 20.1082C74.7814 19.6139 74.9358 18.2807 75.1974 17.5604C74.5599 16.6931 73.9864 15.8835 74.7915 14.8846C75.45 14.0674 75.9903 14.3433 76.8426 14.2227C78.3177 14.0138 77.7794 11.845 79.9631 11.5116ZM46.7627 56.0498C47.3152 55.9543 47.7988 55.7828 48.1399 55.3047C49.1282 53.9203 47.3591 52.6898 46.5083 51.8409C45.7166 51.0509 44.2888 48.9944 43.0196 49.1437C41.7187 49.4966 40.7693 50.6404 41.8347 51.8715C42.5864 52.7401 43.5131 53.5171 44.3454 54.3122C45.1005 55.0338 45.6303 55.9672 46.7627 56.0498ZM50.6478 51.5088C51.7181 51.3832 52.7598 50.1289 52.0609 49.0873C51.3631 48.0477 48.662 44.9916 47.1729 45.0244C45.9061 45.1963 45.2094 46.5657 45.9799 47.5945C46.6616 48.505 49.3483 51.5638 50.6478 51.5088Z" fill="url(#paint1_linear_146_902)"/>
<path d="M52.8597 11.5115C52.1439 10.6106 51.7494 9.23901 52.8419 8.43065C53.7726 7.74217 54.504 8.34969 54.9863 8.1101C55.2887 7.95992 55.5035 6.73278 55.7383 6.3755C56.3649 5.42271 58.0843 5.06451 59.0613 5.70058C59.7856 6.17214 62.9418 9.41251 63.4993 10.2128C64.6887 11.9204 63.4158 13.3835 61.4969 13.48C61.0702 13.8417 60.7005 14.2377 60.3581 14.6794C60.3694 15.4228 60.4111 16.1809 59.8482 16.7618C58.3084 18.3508 57.1415 16.184 54.94 18.3007C51.8924 21.2312 48.9446 24.2803 45.966 27.2811C44.2879 28.9717 42.4962 30.5873 40.919 32.3711L40.8556 32.2885C41.3836 31.4175 42.0736 31.569 41.171 31.1269C40.3854 29.6128 41.973 25.2849 41.4848 24.6725C41.2212 24.9737 40.8896 25.2403 40.592 25.5078L40.4963 25.4852C41.9834 23.9519 43.51 22.4596 45.0243 20.9538L48.3843 17.556L50.4423 15.5502C51.863 14.1678 51.7284 14.5091 52.2764 12.7396C52.4132 12.2977 52.6187 11.9042 52.8597 11.5115Z" fill="#FF8600"/>
</g>
</g>
<defs>
<linearGradient id="paint0_linear_146_902" x1="41.5719" y1="46.1668" x2="10.0898" y2="36.4456" gradientUnits="userSpaceOnUse">
<stop stop-color="#FC731F"/>
<stop offset="1" stop-color="#FFB43A"/>
</linearGradient>
<linearGradient id="paint1_linear_146_902" x1="82.1811" y1="40.6971" x2="42.0836" y2="34.3781" gradientUnits="userSpaceOnUse">
<stop stop-color="#FB5F08"/>
<stop offset="1" stop-color="#FFAB39"/>
</linearGradient>
<clipPath id="clip0_146_902">
<rect width="120" height="70" fill="white"/>
</clipPath>
<clipPath id="clip1_146_902">
<rect width="94" height="94" fill="white" transform="translate(0 -12)"/>
</clipPath>
</defs>
</svg>
