<svg width="51" height="36" viewBox="0 0 51 36" fill="none" xmlns="http://www.w3.org/2000/svg">
<path d="M2.99975 35.997L1.04547 31.4766C5.30438 29.9796 8.59585 26.1164 9.16807 21.5445C-1.26886 20.0561 -3.64866 4.97225 6.50337 0.888338C14.0634 -2.15345 20.85 2.98363 21.883 10.7089C23.4759 22.6234 14.626 34.2046 2.99975 35.997Z" fill="#FFA400"/>
<path d="M29.0799 31.4483C33.2831 30.0212 36.6885 26.1089 37.2086 21.5848C32.4999 20.8173 28.4629 16.639 28.1052 11.7741C27.1851 -0.749811 43.9794 -4.49657 48.8239 6.63704C51.3261 12.3884 50.0508 19.5839 46.9981 24.8632C43.6364 30.6771 37.8123 34.8113 31.2221 35.9711L29.0799 31.4483Z" fill="#FFA400"/>
</svg>
