<svg width="40" height="40" viewBox="0 0 40 40" fill="none" xmlns="http://www.w3.org/2000/svg">
<rect width="40" height="40" rx="20" fill="white"/>
<path d="M29.6129 6.24719C29.6129 6.24719 32.2031 5.03519 31.9872 7.97862C31.9153 9.19064 31.2677 13.4326 30.7641 18.021L29.0373 31.6127C29.0373 31.6127 28.8934 33.6038 27.5983 33.9501C26.3031 34.2964 24.3605 32.7381 24.0007 32.3918C23.7129 32.1321 18.6045 28.2364 16.8057 26.3318C16.3021 25.8124 15.7265 24.7735 16.8777 23.5615L24.4325 14.9044C25.2959 13.8655 26.1593 11.4415 22.5617 14.385L12.4887 22.6093C12.4887 22.6093 11.3375 23.4749 9.17907 22.6958L4.50228 20.9644C4.50228 20.9644 2.77547 19.6658 5.72543 18.3672C12.9205 14.2983 21.7703 10.1429 29.6129 6.24719Z" fill="black"/>
</svg>
