<svg width="40" height="40" viewBox="0 0 40 40" fill="none" xmlns="http://www.w3.org/2000/svg">
<rect width="40" height="40" rx="20" fill="white"/>
<path d="M30.4497 14.9481C30.6174 14.4011 30.4497 14 29.6568 14H27.0303C26.362 14 26.0566 14.347 25.8889 14.7281C25.8889 14.7281 24.5535 17.9264 22.6611 20.0002C22.0503 20.6036 21.7712 20.7942 21.4382 20.7942C21.2718 20.7942 21.0298 20.6036 21.0298 20.0566V14.9481C21.0298 14.2917 20.837 14 20.2801 14H16.1528C15.736 14 15.4845 14.3035 15.4845 14.5928C15.4845 15.2139 16.4307 15.3574 16.5277 17.1077V20.9047C16.5277 21.7363 16.3756 21.8881 16.0402 21.8881C15.1503 21.8881 12.9849 18.678 11.6998 15.0034C11.4494 14.2894 11.1967 14.0012 10.526 14.0012H7.90067C7.14971 14.0012 7 14.3482 7 14.7293C7 15.4139 7.88989 18.8015 11.1452 23.282C13.3155 26.3415 16.3708 28 19.1542 28C20.8226 28 21.0286 27.6318 21.0286 26.9966V24.6841C21.0286 23.9477 21.1879 23.7995 21.7161 23.7995C22.1042 23.7995 22.7725 23.9924 24.3307 25.4663C26.1105 27.2142 26.4051 27.9988 27.4052 27.9988H30.0305C30.7803 27.9988 31.1552 27.6306 30.9396 26.9037C30.7036 26.1803 29.8533 25.1275 28.725 23.8819C28.1118 23.1714 27.1956 22.4068 26.9165 22.0245C26.5273 21.5317 26.6398 21.3141 26.9165 20.8765C26.9177 20.8777 30.1168 16.4525 30.4497 14.9481Z" fill="black"/>
</svg>
