<svg width="40" height="40" viewBox="0 0 40 40" fill="none" xmlns="http://www.w3.org/2000/svg">
<rect width="40" height="40" rx="20" fill="white"/>
<path d="M31.7619 24.7782C31.7446 24.8003 31.6176 25.1991 31.5605 25.3038C30.2158 27.7682 27.7615 29.8443 25.1152 30.7705C23.1292 31.4656 20.1766 31.6995 18.1738 30.995C17.378 30.7151 16.6221 30.1425 15.9064 29.7071C15.6296 30.0782 15.2329 30.3694 14.8441 30.6155C13.9523 31.1796 11.6582 32.1044 10.9215 30.9405C10.64 30.4957 10.773 30.1434 10.7271 29.6794C10.4709 27.0994 9.45078 24.6387 9.1379 22.0672C8.59505 17.6094 9.6044 13.5006 13.0676 10.5167C19.0328 5.37649 28.2598 6.9551 31.7806 14.1093C33.4246 17.4497 33.3567 21.4021 31.8752 24.7745C31.8495 24.82 31.7666 24.7717 31.7619 24.7782ZM26.266 22.5031C26.8341 21.9874 27.2018 19.7155 27.1207 18.9701C26.6402 14.5546 21.5873 11.8163 17.7832 14.4001C14.9631 16.3155 14.6765 20.2082 15.1814 23.287C15.2629 23.783 15.5959 25.0098 15.9055 25.379C16.26 25.8026 16.8834 25.2597 17.2118 25.0056C17.356 24.8942 17.7228 24.4852 17.8689 24.4852C17.9766 24.4852 18.645 24.9882 18.8445 25.015C21.0642 26.0858 23.9943 25.2733 25.5981 23.4575C25.9428 23.0672 25.947 22.9098 26.1587 22.5129C26.1807 22.4716 26.2533 22.5144 26.266 22.5031Z" fill="black"/>
</svg>
