<svg width="70" height="70" viewBox="0 0 70 70" fill="none" xmlns="http://www.w3.org/2000/svg">
<path d="M70 35.0013C70 54.3315 54.329 70.0025 34.9987 70.0025C15.6684 70.0025 0 54.329 0 35.0013C0 15.6735
15.671 0 35.0013 0C54.3315 0 70.0025 15.671 70.0025 35.0013H70ZM51.6985 33.3002H65.8314C65.834 27.372
63.6338 21.4515 60.0611 16.7685L53.6262 19.2004C54.7644 23.3282 56.0046 27.4459 56.1548 31.7723L52.9539
31.533C52.7171 27.5095 51.6246 23.5956 50.2725 19.8243C45.9842 20.4762 41.6883 21.3293 37.3211 21.0644C36.8576
18.5052 36.3687 14.52 33.2289 14.0794L33.015 13.7866C33.3333 11.0593 32.5261 7.66234 33.1194 5.03947C33.1907
4.72371 33.4148 4.73389 32.852 4.77464C28.6351 5.06493 22.139 12.7171 21.2656 16.7482L28.6529 17.7718L27.8661
21.0593L19.7555 19.8141C18.3652 23.6313 17.4917 27.5936 16.9671 31.6246L13.8808 31.7723C14.0081 27.3135
15.4087 23.0761 16.4298 18.7853L9.9618 16.7813C6.28979 21.4311 4.46906 27.176 3.94958 33.043L18.5511
33.3104C19.8421 31.2172 21.3063 24.7263 24.52 28.3932L27.1225 37.1199L30.8047 18.2633C31.3343 16.2185
33.8197 15.7652 34.3901 18.0163L38.3321 39.9211L42.5159 26.4095C43.1576 25.5233 44.5353 25.5106
45.2177 26.3509C45.9689 27.2727 48.5511 34.8205 49.152 34.823C49.6588 34.2475 50.9778 33.4199
51.6985 33.3002ZM36.8016 17.7667C39.6282 17.8049 42.4955 17.6216 45.2992 17.2243C45.8773
17.1429 48.6605 16.8424 48.7675 16.356C46.4069 11.4057 42.4675 5.93328 36.8016
4.77973V17.7667ZM24.5786 5.80087C19.7504 7.32875 16.3534 10.3667 12.6814 13.6185C12.5108
13.7688 12.1925 13.6033 12.3555 14.1966L17.9246 15.6965C19.4474 11.9862 21.8156 8.68093
24.576 5.79832L24.5786 5.80087ZM52.1059 15.7092C52.4191 15.9358 57.6827 14.245 57.6776
13.8172C54.3825 10.6392 50.4507 7.55539 45.9689 6.30761C48.3219 9.21569 50.6774 12.2078
52.1059 15.7092ZM36.8016 51.8895V65.6404C42.8852 64.469 46.6896 58.4696 49.2768 53.2875L40.112
51.8869C40.8531 50.9447 41.8411 50.1833 41.9226 48.8643L50.5271 50.084C51.8793 46.4095 52.6585
42.5643 53.1245 38.6733L56.1548 38.6453C55.9587 42.9259 54.7925 47.0486 53.6058 51.1204L60.191
53.3817C63.3919 48.2862 65.7321 42.987 66.0861 36.8627H52.4624C51.4566 36.8627 50.7996 39.0858
50.2903 39.5289C49.1698 40.5016 47.8304 40.1248 47.1938 38.8235L44.1915 32.5363L39.7912
48.6376C38.0112 51.039 36.8449 49.8803 36.2134 47.5146C35.4444 44.632 34.8892 40.9371 34.3316 37.9374C33.7178
34.6295 33.1907 31.286 32.7273 27.9552C32.3478 27.8915 32.4115 28.4339 32.3478 28.714C31.2681 33.4887 30.6723
39.1444 29.3074 43.756C28.7268 45.7143 26.519 46.44 25.6302 44.3494L22.5439 33.5574L21.1459 35.8492L19.0858
36.8449L4.20932 36.6106C4.02088 42.5999 6.55717 48.574 10.0688 53.3104L16.4349 51.1255C15.1617 46.9952 13.9063
42.768 13.8859 38.3957L16.906 38.686C17.4077 42.5668 18.1895 46.412 19.5034 50.0993C24.222 49.0502 29.0094
48.5892 33.8324 48.3117C34.441 49.1648 34.6855 50.3259 35.4291 51.1001C35.8543 51.5432 36.7634 51.8233
36.8042 51.8895H36.8016ZM33.2366 51.6348L20.7588 53.1653C23.1907 58.5612 27.2294 64.2984 33.2366
65.8951V51.6348ZM17.6776 54.1991C17.3364 53.9521 12.358 55.6965 12.3606 56.0912C15.643 59.6664 19.6562
62.6305 24.3239 64.11C21.6272 61.1816 19.2182 57.9017 17.6776 54.1991ZM45.7143 64.11C50.2623 62.521
54.604 59.8166 57.6827 56.0962L52.358 54.1991C50.8607 57.9246 48.304 61.0975 45.7143 64.11Z" fill="currentColor"/>
</svg>
