<svg width="70" height="70" viewBox="0 0 70 70" fill="none" xmlns="http://www.w3.org/2000/svg">
<g clip-path="url(#clip0_146_880)">
<path d="M23.2414 39.7194C22.089 37.9703 22.1807 34.6015 22.1809 32.6111L22.1806 20.9071C22.1804 19.3511 22.0997 17.7521 22.3656 16.2131C24.2904 5.07802 38.9961 3.01624 43.8595 13.3164C44.1203 13.8686 44.3678 14.4719 44.478 15.0747C45.0735 17.0584 44.8764 19.2726 44.8767 21.3153L44.8771 33.2713C44.8774 34.3048 44.929 35.3654 44.805 36.3917C43.5292 46.9539 29.2111 50.193 23.7191 40.6752C23.5611 40.4013 23.2861 40.0342 23.2414 39.7194Z" fill="url(#paint0_linear_146_880)"/>
<path d="M31.3732 54.7625C31.1566 54.6009 30.2996 54.5933 29.9896 54.5379C20.932 52.9198 13.9948 44.995 13.5324 35.8356C13.4863 34.9209 13.3973 32.672 13.748 31.9229C14.5024 30.3115 16.9725 30.529 17.4776 32.2514C17.7359 33.1321 17.5382 35.2894 17.6613 36.4288C18.7172 46.1945 28.182 52.9779 37.7135 50.2723C43.6948 48.5743 48.8145 43.0278 49.3626 36.7175C49.4717 35.461 49.2375 33.1611 49.5463 32.1657C49.937 30.9065 51.4029 30.5359 52.4841 31.1512C53.736 31.8635 53.6304 33.3693 53.6151 34.6075C53.4933 44.429 46.6687 52.825 37.0141 54.5638C36.7796 54.6061 35.8474 54.6792 35.7298 54.7625C35.434 54.6414 34.3171 54.843 33.9225 54.8551C33.5868 54.8655 31.4602 54.7041 31.3732 54.7625Z" fill="url(#paint1_linear_146_880)"/>
<path d="M31.3732 54.7624C31.4602 54.7041 33.5868 54.8654 33.9225 54.8551C34.3171 54.8429 35.434 54.6414 35.7298 54.7624L35.7281 57.8516C35.7275 58.3725 35.4879 59.054 35.9929 59.0977L36.0576 59.0919C36.8801 59.0243 39.6456 59.0334 40.2233 59.1611C42.4033 59.6431 42.2001 62.9785 39.802 63.0465C38.8103 63.0748 37.812 63.0473 36.8194 63.0464L28.3423 63.0481C27.7957 63.0485 27.219 63.094 26.6783 63.013C24.3869 62.6701 24.7429 59.0056 27.0114 59.0977C27.4957 59.0737 27.9919 59.0955 28.4774 59.0957L31.3732 59.0977V54.7624Z" fill="#FF8400"/>
</g>
<defs>
<linearGradient id="paint0_linear_146_880" x1="46.7692" y1="35.7586" x2="20.2577" y2="17.1962" gradientUnits="userSpaceOnUse">
<stop stop-color="#E06512"/>
<stop offset="1" stop-color="#FDB200"/>
</linearGradient>
<linearGradient id="paint1_linear_146_880" x1="32.9723" y1="54.7915" x2="33.6536" y2="30.4086" gradientUnits="userSpaceOnUse">
<stop stop-color="#FF7700"/>
<stop offset="1" stop-color="#FA7E16"/>
</linearGradient>
<clipPath id="clip0_146_880">
<rect width="67" height="67" fill="white" transform="translate(0 1.5)"/>
</clipPath>
</defs>
</svg>
