<svg width="76" height="76" viewBox="0 0 76 76" fill="none" xmlns="http://www.w3.org/2000/svg">
<g clip-path="url(#clip0_146_932)">
<path d="M15.5325 22.6089C17.4781 22.5863 19.433 22.5869 21.3786 22.6089C24.9897 22.6167 27.0165 23.6942 27.0134 27.6035L27.0094 29.62C26.9934 33.3909 24.784 34.4168 21.3786 34.4004C19.4144 34.3647 17.4215 34.3522 15.4574 34.4004C11.3337 34.1907 10.9475 31.8479 10.9388 28.2729C10.9306 24.8659 11.7158 22.7558 15.5325 22.6089Z" fill="#FF8600"/>
<path d="M34.5867 53.3279C31.3199 53.5468 29.9332 51.1081 29.9348 48.1585V46.316C29.9419 43.2993 31.6939 41.5905 34.6991 41.6247C36.495 41.5991 38.6269 41.7548 40.3743 41.6247C43.7517 41.6106 45.9941 42.4162 46.0075 46.2676L46.0094 48.2814C46.0177 52.2986 44.1879 53.3583 40.3743 53.3279C38.4486 53.2933 36.5131 53.3178 34.5867 53.3279Z" fill="url(#paint0_linear_146_932)"/>
<path d="M15.4574 34.4003C17.4215 34.3521 19.4144 34.3646 21.3785 34.4003L21.3791 58.5916C21.3803 59.5612 21.4548 60.5946 21.3548 61.5553C21.0076 64.8863 16.2364 64.8193 15.6028 61.9705C15.3774 60.9559 15.4571 59.8636 15.4569 58.829L15.4572 39.3029C15.4568 38.5269 15.5957 34.9684 15.4574 34.4003Z" fill="url(#paint1_linear_146_932)"/>
<path d="M34.6991 19.3186C34.6459 17.3829 34.2664 13.5476 35.8318 12.4168C37.0836 11.5127 38.9326 11.7611 39.8452 13.0275C40.6222 14.0547 40.3762 15.5629 40.376 16.7674L40.3737 39.3977C40.3734 40.1345 40.3385 40.8896 40.3743 41.6247C38.6269 41.7547 36.495 41.599 34.6991 41.6247V19.3186Z" fill="url(#paint2_linear_146_932)"/>
<path d="M34.6991 19.3186C34.6459 17.3829 34.2664 13.5476 35.8318 12.4168C37.0836 11.5127 38.9326 11.7611 39.8452 13.0275L39.6667 12.9495L39.625 12.9789C39.5947 13.58 39.0604 13.2984 38.6889 13.4322C38.5559 13.4801 38.647 13.6834 38.5166 13.7144C38.2565 13.4329 37.7892 13.0367 37.4343 13.595L37.3948 13.5744C37.3481 12.8329 36.4298 13.284 35.8748 13.0941C33.987 13.4316 35.0851 17.9526 34.6991 19.3186Z" fill="#FEC85D"/>
<path d="M60.3936 27.3833C64.597 27.4835 66.7106 32.4158 63.8144 35.4049C62.0222 37.2547 59.5017 36.871 57.1687 36.8756C56.0791 36.8778 54.554 36.9924 53.5305 36.7358C48.3152 35.4282 48.6109 27.4084 54.6606 27.3833H60.3936Z" fill="#FF8600"/>
<path d="M57.3676 41.6248C60.6317 41.8783 60.393 43.9206 60.3942 46.5746L60.3948 58.0952C60.3942 60.4616 61.0227 63.6383 57.8317 64.1323C55.2032 64.297 54.7562 62.2979 54.7626 60.2911L54.7638 47.3265C54.7641 44.7747 54.2263 42.4697 57.3676 41.6248Z" fill="url(#paint3_linear_146_932)"/>
<path d="M54.6606 27.3833L54.6585 15.9327C54.6584 14.7539 54.5768 13.6205 55.4751 12.7115C56.5327 11.6412 58.456 11.5512 59.5271 12.6535C60.4717 13.6254 60.3951 14.7004 60.3952 15.9566L60.3936 27.3833H54.6606Z" fill="url(#paint4_linear_146_932)"/>
<path d="M15.5325 22.6089V17.1872C15.5322 16.2865 15.432 14.9403 15.625 14.0903C16.3226 11.0172 20.6821 11.2245 21.2997 13.923C21.4825 14.7218 21.379 16.1003 21.3787 16.9702L21.3786 22.6089C19.433 22.5869 17.4781 22.5863 15.5325 22.6089Z" fill="#FEC85D"/>
<path d="M34.5867 53.3278C36.5131 53.3177 38.4486 53.2932 40.3743 53.3278C40.4046 55.6856 40.2889 58.0576 40.3841 60.4123C40.4032 60.8882 40.4641 61.347 40.3774 61.8202C39.8249 64.8357 35.354 64.8614 34.6776 61.9293C34.4876 61.1061 34.586 59.4546 34.586 58.5371L34.5658 53.7629C34.5661 53.6177 34.5751 53.4725 34.5867 53.3278Z" fill="#FF8600"/>
</g>
<defs>
<linearGradient id="paint0_linear_146_932" x1="37.2037" y1="53.6687" x2="38.7248" y2="41.2673" gradientUnits="userSpaceOnUse">
<stop stop-color="#FC5D0C"/>
<stop offset="1" stop-color="#FF7C0B"/>
</linearGradient>
<linearGradient id="paint1_linear_146_932" x1="14.7603" y1="63.2189" x2="21.6317" y2="34.5256" gradientUnits="userSpaceOnUse">
<stop stop-color="#FF7C29"/>
<stop offset="1" stop-color="#FFB742"/>
</linearGradient>
<linearGradient id="paint2_linear_146_932" x1="32.7568" y1="40.7839" x2="42.6105" y2="14.01" gradientUnits="userSpaceOnUse">
<stop stop-color="#FF9E26"/>
<stop offset="1" stop-color="#FFD369"/>
</linearGradient>
<linearGradient id="paint3_linear_146_932" x1="53.8899" y1="62.8746" x2="61.2473" y2="42.8862" gradientUnits="userSpaceOnUse">
<stop stop-color="#FF7923"/>
<stop offset="1" stop-color="#FFA439"/>
</linearGradient>
<linearGradient id="paint4_linear_146_932" x1="56.1508" y1="27.6024" x2="59.3024" y2="12.2224" gradientUnits="userSpaceOnUse">
<stop stop-color="#FFB13C"/>
<stop offset="1" stop-color="#FFD26D"/>
</linearGradient>
<clipPath id="clip0_146_932">
<rect width="76" height="76" fill="white"/>
</clipPath>
</defs>
</svg>
