<svg width="80" height="80" viewBox="0 0 80 80" fill="none" xmlns="http://www.w3.org/2000/svg">
<g clip-path="url(#clip0_146_916)">
<path d="M23.3956 51.891C23.4457 51.3892 23.4009 50.8852 23.3976 50.3822L23.3968 38.1921C23.3978 37.1212 23.2252 35.376 23.4452 34.3931C24.2002 31.0218 26.773 30.6244 29.5323 29.7685L42.459 25.6548C45.1613 24.8133 47.6604 23.6736 49.9555 26.4988C51.2091 28.0418 51.0656 29.3819 51.064 31.2275L51.0635 56.1529C51.0933 59.7987 51.224 62.2236 47.8288 64.8907C41.9045 69.5448 33.4117 64.4804 34.3923 57.2011C35.2633 50.735 42.6645 48.0886 47.9708 51.891L47.9704 40.8228C47.97 39.0017 47.9167 37.1631 47.9708 35.3439C43.166 36.8945 38.4046 38.5722 33.5851 40.0828C30.6452 41.0041 29.3457 41.9862 26.3739 40.4738V56.3456C25.2549 54.6574 25.6873 53.6396 23.3956 51.891Z" fill="url(#paint0_linear_146_916)"/>
<path d="M11.2486 62.9477C10.408 61.9073 9.93264 59.981 9.87108 58.6665C9.53504 51.4912 18.45 47.3569 23.3956 51.891C25.6873 53.6396 25.2549 54.6574 26.3739 56.3455C26.3905 56.9902 26.5055 57.6292 26.5073 58.2734C26.5247 64.838 19.4291 68.7113 13.8495 65.4256C13.5195 65.2312 12.9844 64.9616 12.7675 64.6371C12.1778 64.1975 11.6689 63.5455 11.2486 62.9477Z" fill="url(#paint1_linear_146_916)"/>
<path d="M11.2486 62.9476C11.8001 63.0785 12.7718 64.1319 12.7675 64.6371C12.1778 64.1974 11.6689 63.5455 11.2486 62.9476Z" fill="#E76A1A"/>
<path d="M69.1496 29.1767C70.9248 29.1062 70.875 30.6735 70.8706 31.8564L70.8672 42.795C70.8676 44.4845 71.1065 47.9937 70.897 49.4658C70.1912 54.4264 64.1242 56.6391 60.2547 53.6762C56.4401 50.7004 57.1843 44.5038 61.6193 42.6126C64.0136 41.5917 65.3591 42.0186 67.4994 42.8858L67.4969 32.1938C67.4896 30.7846 67.3553 29.3889 69.1496 29.1767Z" fill="url(#paint2_linear_146_916)"/>
<path d="M62.3023 19.1577C63.1571 19.1525 64.3466 18.9916 65.0944 19.4629C66.6211 20.4251 65.8305 22.2382 64.2509 22.5194C63.4651 22.5485 62.1561 22.6404 61.467 22.2392C60.065 21.4233 60.6377 19.458 62.3023 19.1577Z" fill="#FDB640"/>
<path d="M57.0422 21.9383C57.9147 21.9177 58.5445 22.6047 58.6386 23.4401C58.8046 24.913 58.9469 26.8989 57.0422 27.093C55.2176 26.9586 55.1676 24.5892 55.4611 23.2618C55.644 22.4354 56.2246 22.06 57.0422 21.9383Z" fill="#FDB640"/>
<path d="M52.3349 17.2326C53.1548 17.226 54.4011 17.0662 55.0665 17.6185C56.2621 18.6107 55.55 20.4467 53.9324 20.5217C53.1437 20.5248 51.8615 20.6857 51.219 20.1825C50.0358 19.2557 50.593 17.3105 52.3349 17.2326Z" fill="#FDB640"/>
<path d="M58.936 12.9934C61.0689 12.8855 61.3024 15.6907 60.7218 16.907C60.4869 17.3993 59.9802 17.6165 59.4961 17.7867C57.2572 18.2207 56.4763 13.537 58.936 12.9934Z" fill="#FDB640"/>
</g>
<defs>
<linearGradient id="paint0_linear_146_916" x1="26.9407" y1="56.7043" x2="54.6899" y2="31.9321" gradientUnits="userSpaceOnUse">
<stop stop-color="#FB5D15"/>
<stop offset="1" stop-color="#FFA323"/>
</linearGradient>
<linearGradient id="paint1_linear_146_916" x1="11.4132" y1="63.0287" x2="24.9308" y2="53.6131" gradientUnits="userSpaceOnUse">
<stop stop-color="#F8521A"/>
<stop offset="1" stop-color="#FF9F20"/>
</linearGradient>
<linearGradient id="paint2_linear_146_916" x1="56.5221" y1="47.1638" x2="74.6327" y2="38.6486" gradientUnits="userSpaceOnUse">
<stop stop-color="#FB5712"/>
<stop offset="1" stop-color="#FFD649"/>
</linearGradient>
<clipPath id="clip0_146_916">
<rect width="81" height="81" fill="white" transform="translate(0 -0.5)"/>
</clipPath>
</defs>
</svg>
