<svg width="30" height="30" viewBox="0 0 30 30" fill="none" xmlns="http://www.w3.org/2000/svg">
<path d="M14.8499 0.00914328C14.3055 0.0725873 13.8872 0.543449 13.8452 1.08234C13.7939 1.73818 13.7939 2.8817 13.8452 3.53678C13.9568 4.95548 16.0343 4.9723 16.1566 3.53678C16.2239 2.74411 16.1046 1.85743 16.1551 1.05406C16.0748 0.395922 15.5189 -0.068824 14.8499 0.0083789V0.00914328ZM5.18194 4.04739C4.1711 4.07644 3.70085 5.25206 4.34926 6.01798C4.75451 6.49648 5.61625 7.36406 6.09567 7.76383C7.24031 8.71778 8.7084 7.24481 7.75644 6.10359C7.23649 5.47985 6.49327 4.92032 5.95115 4.30117C5.74929 4.1437 5.43885 4.04051 5.18194 4.04739ZM24.7518 4.04739C24.485 4.05503 24.2257 4.16358 24.0216 4.33021C23.361 4.86758 22.7248 5.6847 22.1062 6.28245C21.454 7.46037 22.8647 8.64517 23.9061 7.76383C24.3955 7.34953 25.2381 6.50718 25.6525 6.01798C26.3224 5.22684 25.7925 4.01758 24.7518 4.04739ZM14.5907 7.51235C8.99667 7.8311 5.67589 13.9638 8.54095 18.8237C11.3831 23.6455 18.4039 23.741 21.363 18.9858C24.5714 13.8308 20.6328 7.16838 14.5907 7.51235ZM0.994837 13.8598C-0.373081 14.0639 -0.314205 16.0521 1.07206 16.1614C1.87722 16.2248 2.76724 16.1147 3.58157 16.1575C4.96402 15.9749 4.92885 13.9615 3.52805 13.8514C2.71678 13.788 1.81528 13.8942 0.994837 13.8606V13.8598ZM26.3958 13.8598C25.0278 14.0639 25.0867 16.0521 26.473 16.1614C27.2781 16.2248 28.1682 16.1147 28.9825 16.1575C30.3649 15.9749 30.3305 13.9615 28.929 13.8514C28.1177 13.788 27.2162 13.8942 26.3958 13.8606V13.8598ZM6.88018 21.9424C6.59879 21.9447 6.34188 22.0464 6.12549 22.2207C5.46332 22.7542 4.81262 23.5897 4.20016 24.1912C3.60375 25.3149 4.8348 26.4378 5.90069 25.7475C6.46651 25.1291 7.22655 24.5451 7.75644 23.9092C8.41096 23.1242 7.90783 21.9332 6.88018 21.9432V21.9424ZM23.1025 21.9424C22.0787 21.9516 21.5947 23.1402 22.2454 23.9084C22.5382 24.2547 23.8832 25.6306 24.2112 25.8094C25.3582 26.4362 26.528 25.0267 25.6525 23.9933C25.1242 23.3688 24.3955 22.81 23.8473 22.1916C23.6439 22.0326 23.361 21.9401 23.1025 21.9424ZM14.8499 25.402C14.3055 25.4655 13.8872 25.9363 13.8452 26.4752C13.7939 27.1311 13.7939 28.2746 13.8452 28.9297C13.9568 30.3484 16.0343 30.3652 16.1566 28.9297C16.2239 28.137 16.1046 27.2503 16.1551 26.4469C16.0748 25.7888 15.5189 25.3241 14.8499 25.4013V25.402Z" fill="white"/>
</svg>
