<svg width="70" height="70" viewBox="0 0 70 70" fill="none" xmlns="http://www.w3.org/2000/svg">
<g clip-path="url(#clip0_146_892)">
<path d="M37.0096 34.0725C50.5777 33.337 63.3812 45.5436 63.4609 59.1552C63.4719 61.035 63.0034 62.8485 61.6394 64.215C59.9661 65.8913 58.2387 65.8184 56.0515 65.8187L39.0052 65.8178L20.2521 65.8188C19.3142 65.8188 18.3247 65.8721 17.3969 65.7289C14.9617 65.3527 13.0465 63.1859 12.7045 60.7877C11.9339 55.3834 14.4393 48.7506 17.643 44.5158C21.445 39.49 27.2628 35.9798 33.4021 34.6067C34.5969 34.3394 35.801 34.2413 37.0096 34.0725Z" fill="url(#paint0_linear_146_892)"/>
<path d="M25.548 10.911C26.8489 8.08648 30.2376 5.39623 33.0703 4.34043C40.6481 1.51588 48.6802 5.46092 51.4284 12.9825C51.7758 13.9335 51.9626 14.9417 52.2135 15.921C52.1179 16.7006 52.2355 17.8066 52.2093 18.6444C52.0152 24.875 46.9115 30.4077 40.9235 31.7495C33.4179 33.4314 25.8256 28.2576 24.1892 20.8435C23.533 17.8698 23.8585 13.5632 25.548 10.911Z" fill="url(#paint1_linear_146_892)"/>
</g>
<defs>
<linearGradient id="paint0_linear_146_892" x1="23.8387" y1="72.3268" x2="52.859" y2="39.1828" gradientUnits="userSpaceOnUse">
<stop stop-color="#F49A06"/>
<stop offset="1" stop-color="#FF8400"/>
</linearGradient>
<linearGradient id="paint1_linear_146_892" x1="41.4124" y1="3.80877" x2="34.5919" y2="31.5985" gradientUnits="userSpaceOnUse">
<stop stop-color="#E06512"/>
<stop offset="1" stop-color="#E5730E"/>
</linearGradient>
<clipPath id="clip0_146_892">
<rect width="76" height="76" fill="white" transform="translate(0 -3)"/>
</clipPath>
</defs>
</svg>
